<svg xmlns="http://www.w3.org/2000/svg" viewBox="0 0 60 60"><defs><style>.a{fill:#2b2e31;}.b{fill:#f89e1c;}</style></defs><title>StackratsLogo</title><path class="a" d="M19.26513,2.97016l6.07512,6.07508A35.59926,35.59926,0,0,0,28.555,12.27386a8.71442,8.71442,0,0,0,9.40436.31394l6.15508-6.158a1.73772,1.73772,0,0,1,2.45256,0l6.96369,6.96667a1.73411,1.73411,0,0,1,0,2.44957L46.567,22.81275a1.74327,1.74327,0,0,1-2.45256,0L37.95933,16.6547a8.72327,8.72327,0,0,0-8.8949-.01482c-1.29145.77011-2.904,2.73391-4.07725,3.9069l-5.72232,5.72259a6.46608,6.46608,0,0,1-1.3729,1.05155,6.32785,6.32785,0,0,1-.058-.859,6.25631,6.25631,0,0,1,.41346-2.24818l6.44655-6.44827a4.46149,4.46149,0,0,0-.00027-6.2913L17.72785,4.50743a4.46366,4.46366,0,0,0-6.29247,0L4.46961,11.47415a4.461,4.461,0,0,0-.00032,6.2913l6.44628,6.44827a6.2644,6.2644,0,0,1,.41378,2.24818,6.33944,6.33944,0,0,1-.05808.859,6.477,6.477,0,0,1-1.37344-1.05155L2.93206,19.30273a6.64157,6.64157,0,0,1,0-9.3659L9.89783,2.97016a6.64683,6.64683,0,0,1,9.3673,0Z"/><path class="b" d="M57.0673,19.30273l-6.07508,6.07508a35.17574,35.17574,0,0,0-3.22565,3.21674,8.70931,8.70931,0,0,0-.314,9.40142l6.158,6.15806a1.73948,1.73948,0,0,1,0,2.44957L46.644,53.57033a1.73411,1.73411,0,0,1-2.44957,0l-6.96667-6.96672a1.73948,1.73948,0,0,1,0-2.44957l6.158-6.15508a8.72327,8.72327,0,0,0,.01482-8.8949c-.77015-1.29145-2.73689-2.90579-3.90988-4.07874l-5.72259-5.72259a6.60769,6.60769,0,0,1-1.05742-1.38031,6.35749,6.35749,0,0,1,.78787-.05035,6.2664,6.2664,0,0,1,2.37848.46507l6.395,6.39494a4.466,4.466,0,0,0,6.29437,0L55.53,17.76839a4.46042,4.46042,0,0,0,0-6.29424L48.56637,4.50743a4.466,4.466,0,0,0-6.29437,0l-6.395,6.395a6.255,6.255,0,0,1-2.37848.465,6.364,6.364,0,0,1-.78787-.04737,6.62339,6.62339,0,0,1,1.05742-1.38329l6.96663-6.96667a6.64875,6.64875,0,0,1,9.36888,0L57.0673,9.93683a6.63975,6.63975,0,0,1,0,9.3659Z"/><path class="a" d="M40.65775,56.95588l-6.07512-6.07512a34.85875,34.85875,0,0,0-3.21674-3.22859,8.709,8.709,0,0,0-9.40115-.314l-6.1577,6.1581a1.74027,1.74027,0,0,1-2.45016,0L6.39106,46.52953a1.73654,1.73654,0,0,1,0-2.44957l6.96545-6.96663a1.74063,1.74063,0,0,1,2.45052,0l6.15679,6.158a8.71926,8.71926,0,0,0,8.89255.01482c1.29448-.77015,2.90575-2.73391,4.07874-3.9069l5.72263-5.72259a6.4932,6.4932,0,0,1,1.4336-1.08712,6.21955,6.21955,0,0,1,.07408.96861,6.32765,6.32765,0,0,1-.32582,2.01121l-6.61125,6.60826a4.46574,4.46574,0,0,0,0,6.29419L42.195,55.41851a4.46215,4.46215,0,0,0,6.2913,0L55.453,48.45184a4.46574,4.46574,0,0,0,0-6.29419l-6.36538-6.36542a6.30272,6.30272,0,0,1-.35543-3.13973,6.396,6.396,0,0,1,1.29141,1.00418l6.96672,6.96663a6.63975,6.63975,0,0,1,0,9.3659l-6.96672,6.96667a6.64507,6.64507,0,0,1-9.36585,0Z"/><path class="b" d="M2.93206,40.69734l6.07535-6.07508a35.48813,35.48813,0,0,0,3.22773-3.21674,8.71149,8.71149,0,0,0,.313-9.40147l-6.1577-6.158a1.73732,1.73732,0,0,1,0-2.44957l6.96577-6.96667a1.73487,1.73487,0,0,1,2.45021,0l6.96573,6.96667a1.737,1.737,0,0,1,0,2.44957l-6.15679,6.158a8.71745,8.71745,0,0,0-.01573,8.892c.77011,1.29141,2.73544,2.9057,3.909,4.07869l5.722,5.72259a6.51651,6.51651,0,0,1,1.01214,1.30329,6.32145,6.32145,0,0,1-3.19189-.40876l-6.323-6.32389a4.46437,4.46437,0,0,0-6.29306,0l-6.9655,6.96369a4.46428,4.46428,0,0,0,0,6.29428l6.9655,6.96667a4.46437,4.46437,0,0,0,6.29306,0L24.292,48.92875a6.2648,6.2648,0,0,1,2.1318-.37016,6.49322,6.49322,0,0,1,.89892.0621,6.56021,6.56021,0,0,1-1.09209,1.44259l-6.96577,6.96663a6.64666,6.64666,0,0,1-9.367,0L2.93206,50.06328a6.64138,6.64138,0,0,1,0-9.36594Z"/></svg>