<svg xmlns="http://www.w3.org/2000/svg" viewBox="0 0 200 60"><defs><style>.a{fill:#f89e1c;}.b{fill:#2b2e31;}</style></defs><title>StackratsLogo</title><path class="a" d="M144.95783,24.7175a2.24337,2.24337,0,0,0-1.16182-.34022h-.32285q-2.18059.08991-2.18058,3.03892V38.24766h-5.71827V27.4162q0-7.809,7.89885-8.2043h.32285a9.6457,9.6457,0,0,1,1.16182.10826V24.7175Zm6.8685,1.966a4.25764,4.25764,0,0,0-.66116,2.30624,4.38881,4.38881,0,0,0,1.4286,3.27089,4.81614,4.81614,0,0,0,6.70225,0,4.39073,4.39073,0,0,0,1.43051-3.27089,4.25786,4.25786,0,0,0-.66113-2.30624,4.88627,4.88627,0,0,0-1.76882-1.67991,4.855,4.855,0,0,0-4.70144,0,4.886,4.886,0,0,0-1.76882,1.67991Zm8.91761,11.0286c-.38084.16628-.66113.2784-.839.33834a10.90093,10.90093,0,0,1-3.96875.73263,11.01652,11.01652,0,0,1-5.16537-1.26813,10.16329,10.16329,0,0,1-3.86052-3.50286,9.44166,9.44166,0,0,1-.607-8.91958,9.73071,9.73071,0,0,1,2.30432-3.11043,10.00515,10.00515,0,0,1,3.36175-2.01822,10.97526,10.97526,0,0,1,3.96683-.73266,11.36484,11.36484,0,0,1,3.96875.71334,10.0336,10.0336,0,0,1,3.35983,2.03754,9.78523,9.78523,0,0,1,2.32364,3.11043,9.14793,9.14793,0,0,1,.839,3.89724l-.01743,9.312-5.666-.0541v-.53553Zm9.93448-6.38132a8.89778,8.89778,0,0,0,.87569,4.20074,5.57944,5.57944,0,0,0,2.59233,2.48414,9.75775,9.75775,0,0,0,4.2549.82154,5.50135,5.50135,0,0,0,.87572-.07147l1.64316-5.6835a3.80916,3.80916,0,0,1-1.50013.232q-3.03888,0-3.0389-2.43V24.82384h2.51888l1.27-4.89668H176.3812V12.92146l-5.70279-.03675v7.04245h-2.48411l-1.28556,4.89668h3.76967v6.507Zm10.70383,4.98559a14.81267,14.81267,0,0,0,2.35845,1.48464,8.6697,8.6697,0,0,0,2.343.78685,14.40116,14.40116,0,0,0,2.805.24934,9.11929,9.11929,0,0,0,3.59174-.73263,6.19355,6.19355,0,0,0,2.77215-2.12648,5.53019,5.53019,0,0,0,1.03622-3.35983,5.277,5.277,0,0,0-1.1986-3.82571,6.1671,6.1671,0,0,0-2.948-1.64508q-1.60937-.3741-3.19936-.80419-1.447-.39149-1.44795-1.37641c0-.72493.64951-1.09032,1.94864-1.09032a4.87971,4.87971,0,0,1,3.00217,1.03814l3.14523-3.12786a9.92238,9.92238,0,0,0-1.85775-1.32226,10.6963,10.6963,0,0,0-2.18063-.92988,8.47923,8.47923,0,0,0-2.21727-.3035,9.36413,9.36413,0,0,0-3.557.66116,5.9108,5.9108,0,0,0-2.59041,2.00082,5.52343,5.52343,0,0,0-.984,3.325,5.25708,5.25708,0,0,0,1.19857,3.789,6.30734,6.30734,0,0,0,2.98477,1.71472q2.18059.5741,3.18.80611,1.41217.37406,1.41311,1.1599,0,1.502-2.55561,1.502a5.64135,5.64135,0,0,1-4.14662-1.69732l-2.89586,3.82377Z"/><path class="b" d="M45.03713,36.3164A14.81153,14.81153,0,0,0,47.39561,37.801a8.679,8.679,0,0,0,2.341.78685,14.4218,14.4218,0,0,0,2.807.24934,9.12632,9.12632,0,0,0,3.59177-.73263,6.17729,6.17729,0,0,0,2.7702-2.12648,5.51767,5.51767,0,0,0,1.03619-3.35983,5.27677,5.27677,0,0,0-1.19663-3.82571,6.17374,6.17374,0,0,0-2.95-1.64508q-1.60645-.3741-3.19939-.80419-1.4469-.39149-1.446-1.37641c0-.72493.64759-1.09032,1.94669-1.09032a4.885,4.885,0,0,1,3.00412,1.03814l3.14523-3.12786a9.93811,9.93811,0,0,0-1.85967-1.32226,10.69771,10.69771,0,0,0-2.18063-.92988,8.45452,8.45452,0,0,0-2.21538-.3035,9.35707,9.35707,0,0,0-3.557.66116,5.91632,5.91632,0,0,0-2.59236,2.00082,5.52244,5.52244,0,0,0-.982,3.325,5.25706,5.25706,0,0,0,1.1966,3.789,6.30772,6.30772,0,0,0,2.9848,1.71472q2.18059.5741,3.182.80611,1.41212.37406,1.41116,1.1599,0,1.502-2.55564,1.502A5.64757,5.64757,0,0,1,47.931,32.49264L45.03713,36.3164Zm18.8714-4.98559a8.89741,8.89741,0,0,0,.87572,4.20074,5.58422,5.58422,0,0,0,2.59041,2.48414,9.7577,9.7577,0,0,0,4.25487.82154,5.46478,5.46478,0,0,0,.87572-.07147l1.64508-5.6835a3.813,3.813,0,0,1-1.502.232q-3.03892,0-3.0389-2.43V24.82384h2.5208l1.26816-4.89668h-3.789V12.92146l-5.7009-.03675v7.04245H61.42443L60.137,24.82384h3.77156v6.507Zm17.13931-4.64728a4.25809,4.25809,0,0,0-.6611,2.30624,4.3887,4.3887,0,0,0,1.4286,3.27089,4.8161,4.8161,0,0,0,6.70222,0,4.39073,4.39073,0,0,0,1.43051-3.27089,4.25761,4.25761,0,0,0-.66113-2.30624,4.886,4.886,0,0,0-1.76882-1.67991,4.855,4.855,0,0,0-4.70144,0,4.88659,4.88659,0,0,0-1.76885,1.67991Zm8.91767,11.0286c-.38084.16628-.66116.2784-.839.33834a10.90109,10.90109,0,0,1-3.96878.73263,11.01672,11.01672,0,0,1-5.1654-1.26813,10.16363,10.16363,0,0,1-3.86049-3.50286,9.44153,9.44153,0,0,1-.607-8.91958,9.73028,9.73028,0,0,1,2.30432-3.11043,10.00515,10.00515,0,0,1,3.36175-2.01822,10.9751,10.9751,0,0,1,3.9668-.73266,11.36512,11.36512,0,0,1,3.96878.71334,10.03347,10.03347,0,0,1,3.3598,2.03754A9.78533,9.78533,0,0,1,94.81,25.09253a9.14791,9.14791,0,0,1,.839,3.89724l-.01737,9.312-5.66606-.0541v-.53553Zm23.98457-16.28291a10.016,10.016,0,0,0-3.093-1.66251,11.29489,11.29489,0,0,0-3.557-.57219,11.62855,11.62855,0,0,0-4.164.73263,9.7996,9.7996,0,0,0-3.30567,2.05495,9.61266,9.61266,0,0,0-2.1632,3.21868,10.56394,10.56394,0,0,0-.76938,4.10989,9.11479,9.11479,0,0,0,1.27008,4.66468,9.45919,9.45919,0,0,0,3.64593,3.46808,11.214,11.214,0,0,0,5.48628,1.30488,12.62461,12.62461,0,0,0,4.95081-1.09035,6.01565,6.01565,0,0,0,1.89448-1.27l-3.12783-3.96683a5.23118,5.23118,0,0,1-3.6092,1.33969,4.57989,4.57989,0,0,1-2.52083-.69594,4.36906,4.36906,0,0,1-1.69735-1.8423,5.69918,5.69918,0,0,1-.58957-2.62714,4.10456,4.10456,0,0,1,1.37638-3.14523,4.68057,4.68057,0,0,1,3.3231-1.26816,6.18435,6.18435,0,0,1,2.00274.3209,5.40529,5.40529,0,0,1,1.67991.96466l2.96736-4.03836Zm6.93617,16.81843V29.27587l6.72157,8.97179h7.13138l-7.77514-10.439,6.61332-7.84475h-6.70225l-5.91735,6.93422h-.07153V12.88471L115.168,12.904V38.24766Z"/><path class="b" d="M15.13821,12.7721l3.87208,3.872A22.68975,22.68975,0,0,0,21.05923,18.702a5.55428,5.55428,0,0,0,5.994.20009l3.923-3.92491a1.10756,1.10756,0,0,1,1.56318,0l4.43842,4.44032a1.10526,1.10526,0,0,1,0,1.56127L32.53946,25.4191a1.1111,1.1111,0,0,1-1.56318,0l-3.923-3.92494a5.55991,5.55991,0,0,0-5.66931-.00945,18.21174,18.21174,0,0,0-2.5987,2.49012L15.138,27.62222a4.12126,4.12126,0,0,1-.875.67022,4.03315,4.03315,0,0,1-.037-.5475,3.98756,3.98756,0,0,1,.26353-1.43291l4.10881-4.1099a2.8436,2.8436,0,0,0-.00017-4.00986L14.1584,13.75191a2.845,2.845,0,0,0-4.01061,0L5.70805,18.19226a2.84326,2.84326,0,0,0-.0002,4.00986L9.81649,26.312a3.99271,3.99271,0,0,1,.26373,1.43291,4.04054,4.04054,0,0,1-.037.5475,4.12824,4.12824,0,0,1-.87538-.67022L4.72807,23.18193a4.23311,4.23311,0,0,1,0-5.9695L9.16782,12.7721a4.23646,4.23646,0,0,1,5.9704,0Z"/><path class="a" d="M39.232,23.18193,35.36,27.054a22.41982,22.41982,0,0,0-2.05592,2.05024,5.551,5.551,0,0,0-.20012,5.99215l3.92491,3.92494a1.10868,1.10868,0,0,1,0,1.56127l-4.44029,4.44035a1.10526,1.10526,0,0,1-1.56127,0L26.587,40.58257a1.10868,1.10868,0,0,1,0-1.56127l3.92491-3.923a5.55991,5.55991,0,0,0,.00945-5.66931,18.2248,18.2248,0,0,0-2.492-2.59965L24.3819,23.18193a4.21152,4.21152,0,0,1-.674-.87976,4.052,4.052,0,0,1,.50216-.03209,3.994,3.994,0,0,1,1.516.29642L29.802,26.64241a2.84645,2.84645,0,0,0,4.01182,0L38.25221,22.204a2.84292,2.84292,0,0,0,0-4.01173l-4.43839-4.44035a2.84645,2.84645,0,0,0-4.01182,0l-4.07594,4.076a3.98674,3.98674,0,0,1-1.516.29639,4.05619,4.05619,0,0,1-.50216-.03019,4.22152,4.22152,0,0,1,.674-.88166L28.8222,12.7721a4.23768,4.23768,0,0,1,5.9714,0L39.232,17.21242a4.232,4.232,0,0,1,0,5.9695Z"/><path class="b" d="M28.77314,47.18076l-3.87208-3.87208a22.21777,22.21777,0,0,0-2.05024-2.05779,5.5508,5.5508,0,0,0-5.992-.20015l-3.92471,3.925a1.10919,1.10919,0,0,1-1.56165,0L6.93272,40.53536a1.10681,1.10681,0,0,1,0-1.56127l4.43954-4.44029a1.10942,1.10942,0,0,1,1.56188,0l3.92413,3.92491a5.55736,5.55736,0,0,0,5.66781.00945A18.1085,18.1085,0,0,0,25.12573,35.978l3.64741-3.64738a4.13854,4.13854,0,0,1,.91373-.69289,3.96413,3.96413,0,0,1,.04721.61736,4.033,4.033,0,0,1-.20767,1.28188l-4.21378,4.21188a2.84631,2.84631,0,0,0,0,4.0117l4.44032,4.44032a2.844,2.844,0,0,0,4.00986,0l4.44032-4.44032a2.84631,2.84631,0,0,0,0-4.0117l-4.05707-4.0571a4.01714,4.01714,0,0,1-.22654-2.00116,4.0766,4.0766,0,0,1,.8231.64L39.183,36.77093a4.232,4.232,0,0,1,0,5.9695l-4.44035,4.44032a4.23534,4.23534,0,0,1-5.96947,0Z"/><path class="a" d="M4.72807,36.81812l3.87222-3.872a22.61892,22.61892,0,0,0,2.05724-2.05024,5.5524,5.5524,0,0,0,.19952-5.99217L6.93234,20.97875a1.10731,1.10731,0,0,1,0-1.56127l4.43974-4.44032a1.10575,1.10575,0,0,1,1.56168,0l4.43971,4.44032a1.10713,1.10713,0,0,1,0,1.56127l-3.92413,3.92491a5.5562,5.5562,0,0,0-.01,5.66746,18.2019,18.2019,0,0,0,2.49145,2.59962l3.647,3.64738a4.1534,4.1534,0,0,1,.6451.83067,4.02908,4.02908,0,0,1-2.0344-.26053L14.1584,33.35764a2.84544,2.84544,0,0,0-4.011,0L5.70785,37.79605a2.84538,2.84538,0,0,0,0,4.01176l4.43957,4.44032a2.84544,2.84544,0,0,0,4.011,0l4.18377-4.18359a3.993,3.993,0,0,1,1.35873-.23593,4.13855,4.13855,0,0,1,.57294.03958,4.18125,4.18125,0,0,1-.69606.91946L15.138,47.22794a4.23636,4.23636,0,0,1-5.97022,0L4.72807,42.78765a4.233,4.233,0,0,1,0-5.96953Z"/><path class="a" d="M134.73918,38.24764h6.55342V31.54177c-1.9046-.00006-4.0686-.00037-5.71832.00031-.12219,1.53632-2.04608,2.26056-3.83539,2.67731Z"/><path class="a" d="M145.87756,41.39321c-2.582-.5932-5.34857.37994-7.83228,1.00787a76.47749,76.47749,0,0,1-10.238,2.04645c-2.97095.33105-6.7816.72253-9.25773-1.33228a2.41729,2.41729,0,0,1-.62012-3.26727c.78149-.992,2.68162-1.18439,3.8206-1.32715a54.675,54.675,0,0,1,5.8578-.27319L125.39343,35.292a54.90979,54.90979,0,0,0-6.27686.98389c-2.59473.62939-5.48368,2.07336-5.03324,5.1825.41357,2.85425,3.64408,4.52155,6.19889,5.10138,3.84369.87238,7.66187.43378,11.47009-.27759,3.51672-.65692,6.82758-2.01489,10.28546-2.88483a9.0265,9.0265,0,0,1,4.28058-.14569c1.58557.37622,2.62427,1.3562,3.94244,2.22156A5.88287,5.88287,0,0,0,145.87756,41.39321Z"/></svg>