<?xml version="1.0" encoding="UTF-8" standalone="no"?>
<!-- Created with Inkscape (http://www.inkscape.org/) -->

<svg
   width="200"
   height="40"
   viewBox="0 0 52.916666 10.583333"
   version="1.1"
   id="svg1"
   inkscape:version="1.3 (1:1.3+202307231459+0e150ed6c4)"
   sodipodi:docname="stackrats_logo_light.svg"
   xmlns:inkscape="http://www.inkscape.org/namespaces/inkscape"
   xmlns:sodipodi="http://sodipodi.sourceforge.net/DTD/sodipodi-0.dtd"
   xmlns="http://www.w3.org/2000/svg"
   xmlns:svg="http://www.w3.org/2000/svg">
  <sodipodi:namedview
     id="namedview1"
     pagecolor="#505050"
     bordercolor="#ffffff"
     borderopacity="1"
     inkscape:showpageshadow="0"
     inkscape:pageopacity="0"
     inkscape:pagecheckerboard="1"
     inkscape:deskcolor="#505050"
     inkscape:document-units="px"
     inkscape:zoom="8"
     inkscape:cx="40"
     inkscape:cy="29.3125"
     inkscape:window-width="3840"
     inkscape:window-height="2309"
     inkscape:window-x="0"
     inkscape:window-y="0"
     inkscape:window-maximized="1"
     inkscape:current-layer="layer1" />
  <defs
     id="defs1" />
  <g
     inkscape:label="Layer 1"
     inkscape:groupmode="layer"
     id="layer1">
    <g
       id="g2"
       transform="matrix(0.26458332,0,0,0.26458332,0.02518126,-2.6466433)"
       style="display:inline"
       inkscape:label="stackrats">
      <path
         class="a"
         d="m 151.82633,26.6835 c -0.4369,0.689477 -0.6664,1.49001 -0.66116,2.30624 -0.009,1.243446 0.51053,2.432207 1.4286,3.27089 1.86771,1.809427 4.83454,1.809427 6.70225,0 0.91857,-0.838486 1.43845,-2.027199 1.43051,-3.27089 0.005,-0.816225 -0.22425,-1.616755 -0.66113,-2.30624 -0.4381,-0.700509 -1.04667,-1.278491 -1.76882,-1.67991 -1.46264,-0.80939 -3.2388,-0.80939 -4.70144,0 -0.72216,0.401409 -1.33073,0.979393 -1.76882,1.67991 z m 8.91761,11.0286 c -0.38084,0.16628 -0.66113,0.2784 -0.839,0.33834 -1.26578,0.489105 -2.61176,0.737572 -3.96875,0.73263 -1.79952,0.0055 -3.573,-0.429887 -5.16537,-1.26813 -1.56949,-0.812136 -2.9001,-2.019469 -3.86052,-3.50286 -1.68635,-2.682936 -1.91432,-6.032917 -0.607,-8.91958 0.55205,-1.18067 1.33566,-2.238406 2.30432,-3.11043 0.9765,-0.887884 2.11902,-1.573794 3.36175,-2.01822 1.26565,-0.487209 2.61064,-0.735624 3.96683,-0.73266 1.35486,-6.89e-4 2.69893,0.240893 3.96875,0.71334 1.24329,0.451101 2.38512,1.143557 3.35983,2.03754 0.97453,0.8712 1.76462,1.928825 2.32364,3.11043 0.56277,1.221605 0.84924,2.552278 0.839,3.89724 l -0.0174,9.312 -5.666,-0.0541 v -0.53553 z m 9.93448,-6.38132 c -0.0552,1.450718 0.24547,2.8929 0.87569,4.20074 0.5668,1.091055 1.47812,1.964337 2.59233,2.48414 1.33879,0.589305 2.79295,0.870074 4.2549,0.82154 0.29335,-4.37e-4 0.58619,-0.02434 0.87572,-0.07147 l 1.64316,-5.6835 c -0.47941,0.177194 -0.98959,0.256093 -1.50013,0.232 -2.02592,0 -3.03889,-0.81 -3.0389,-2.43 v -6.06039 h 2.51888 l 1.27,-4.89668 h -3.78887 v -7.0057 l -5.70279,-0.03675 v 7.04245 h -2.48411 l -1.28556,4.89668 h 3.76967 v 6.507 z m 10.70383,4.98559 c 0.73775,0.567897 1.52739,1.064977 2.35845,1.48464 0.73941,0.372834 1.52843,0.637809 2.343,0.78685 0.92461,0.17455 1.8641,0.258063 2.805,0.24934 1.23449,0.0014 2.45642,-0.247827 3.59174,-0.73263 1.10897,-0.428108 2.07132,-1.16631 2.77215,-2.12648 0.70171,-0.977397 1.06551,-2.156982 1.03622,-3.35983 0.1193,-1.383259 -0.31135,-2.757806 -1.1986,-3.82571 -0.81053,-0.811883 -1.83145,-1.381591 -2.948,-1.64508 -1.07291,-0.2494 -2.13937,-0.517463 -3.19936,-0.80419 -0.96467,-0.260993 -1.44732,-0.719797 -1.44795,-1.37641 0,-0.72493 0.64951,-1.09032 1.94864,-1.09032 1.0885,0.0015 2.14524,0.366936 3.00217,1.03814 l 3.14523,-3.12786 c -0.56638,-0.51068 -1.18974,-0.954363 -1.85775,-1.32226 -0.69018,-0.3898 -1.42154,-0.701675 -2.18063,-0.92988 -0.72243,-0.198686 -1.46802,-0.300741 -2.21727,-0.3035 -1.21737,-0.01293 -2.42559,0.211644 -3.557,0.66116 -1.0346,0.4098 -1.9325,1.103334 -2.59041,2.00082 -0.67642,0.973972 -1.02142,2.139775 -0.984,3.325 -0.11163,1.371174 0.31867,2.731476 1.19857,3.789 0.81669,0.837261 1.85011,1.430945 2.98477,1.71472 1.45373,0.382733 2.51373,0.651437 3.18,0.80611 0.94145,0.249373 1.41248,0.636007 1.41311,1.1599 0,1.001333 -0.85187,1.502 -2.55561,1.502 -1.55725,0.03092 -3.05799,-0.583372 -4.14662,-1.69732 l -2.89586,3.82377 z M 143.79399,19.211271 c -1.0922,0 -4.2604,0.18819 -6.2441,2.24804 -1.3164,1.36758 -1.9746,3.35405 -1.9746,5.95704 v 4.12695 6.70508 h 5.7168 v -6.70508 -4.12695 c 0,-2.81165 1.4564,-3.03907 2.5039,-3.03907 0.2652,0.003 0.7097,0.0577 1.1621,0.33985 v -5.39649 c -0.3848,-0.0599 -0.77268,-0.10937 -1.1621,-0.10937 z"
         id="path1"
         sodipodi:nodetypes="scccccccssscccccccccccccccssccccccscccccccccccssccccccccscccccccccccccccccsscsccccscccss"
         style="display:inline;fill:#f89e1c"
         inkscape:label="rats" />
      <path
         id="path2"
         class="b"
         d="m 63.908349,12.885436 v 7.041016 h -2.484375 l -1.287109,4.896484 h 3.771484 v 6.507813 c -0.05518,1.450719 0.244753,2.893341 0.875,4.201172 0.5666,1.090527 1.478505,1.963927 2.591797,2.484375 1.338784,0.589301 2.791969,0.868844 4.253906,0.820312 0.293352,-2.8e-4 0.587439,-0.02302 0.876954,-0.07031 l 1.644531,-5.683594 c -0.480026,0.17734 -0.990792,0.256663 -1.501953,0.232422 -2.025945,0 -3.039076,-0.811642 -3.039063,-2.431641 v -6.060547 h 2.521485 l 1.267578,-4.896484 h -3.789063 v -7.00586 z m 56.978511,0 -5.71875,0.01953 v 25.341797 h 5.71875 V 29.27606 l 6.72071,8.970703 h 7.13086 l -7.77344,-10.4375 6.61328,-7.845703 h -6.70312 l -5.91797,6.933594 h -0.0703 z m -13.58593,6.308594 c -1.42111,-0.01229 -2.8325,0.235816 -4.16407,0.732422 -1.2282,0.457059 -2.35324,1.155562 -3.306636,2.054687 -0.932245,0.914789 -1.667198,2.010039 -2.162109,3.21875 -0.527726,1.305018 -0.789461,2.703789 -0.769531,4.111328 -0.0042,1.640869 0.434014,3.251838 1.269531,4.664063 0.879898,1.464001 2.140345,2.663106 3.646485,3.46875 1.68775,0.895191 3.57627,1.344161 5.48633,1.304687 1.70702,-0.02497 3.38965,-0.395389 4.94922,-1.089843 0.7067,-0.298652 1.3498,-0.731217 1.89453,-1.271485 l -3.12696,-3.966797 c -0.98902,0.889113 -2.27975,1.368301 -3.60937,1.339844 -0.89006,0.01795 -1.76671,-0.223264 -2.52149,-0.695312 -0.73347,-0.435263 -1.32343,-1.075189 -1.69726,-1.841797 -0.40353,-0.816055 -0.60596,-1.716721 -0.58984,-2.626953 -0.0228,-1.199147 0.48067,-2.349519 1.37695,-3.146485 0.89767,-0.843529 2.0928,-1.298606 3.32422,-1.267578 0.68069,-0.004 1.35658,0.103856 2.00195,0.320313 0.61349,0.217768 1.18238,0.544753 1.67969,0.964843 l 2.96679,-4.039062 c -0.92505,-0.731984 -1.97093,-1.294402 -3.09179,-1.662109 -1.14742,-0.379815 -2.348,-0.573078 -3.55664,-0.572266 z m -54.310549,0.03711 c -1.217389,-0.0131 -2.425282,0.21242 -3.556641,0.66211 -1.035159,0.409749 -1.935091,1.102431 -2.59375,2 -0.675769,0.974179 -1.018549,2.13921 -0.980469,3.324218 -0.11218,1.370909 0.316114,2.731244 1.195313,3.789063 0.816709,0.837249 1.849706,1.431054 2.984375,1.714844 1.453728,0.382729 2.515984,0.651971 3.183593,0.80664 0.94141,0.24937 1.410797,0.636267 1.410157,1.160157 0,1.001329 -0.850929,1.501953 -2.554688,1.501953 -1.557118,0.0302 -3.057415,-0.583957 -4.146484,-1.697266 l -2.894531,3.824219 c 0.737749,0.567889 1.526352,1.064735 2.357421,1.484375 0.73884,0.37254 1.527948,0.637759 2.341797,0.787109 0.925279,0.17455 1.865082,0.256767 2.806641,0.248047 1.234479,10e-4 2.456418,-0.247802 3.591797,-0.732422 1.108709,-0.427619 2.071845,-1.166434 2.771484,-2.126953 0.70253,-0.976989 1.09961,-2.172547 1.09961,-3.347656 -10e-6,-1.346269 -0.37515,-2.769702 -1.261719,-3.837891 -0.811289,-0.811919 -1.83208,-1.381061 -2.949219,-1.644531 -1.070969,-0.2494 -2.13726,-0.517958 -3.199219,-0.804688 -0.964599,-0.260989 -1.445912,-0.71839 -1.445312,-1.375 0,-0.724929 0.646214,-1.091796 1.945312,-1.091796 1.089099,10e-4 2.146257,0.367813 3.003907,1.039062 L 59.24624,21.78778 c -0.567069,-0.510689 -1.190776,-0.954376 -1.859375,-1.322266 -0.690179,-0.389789 -1.422561,-0.70342 -2.181641,-0.93164 -0.721769,-0.19881 -1.466204,-0.300105 -2.214843,-0.302734 z m 32.167968,0 c -1.356175,-0.003 -2.701155,0.245214 -3.966797,0.732422 -1.242728,0.444426 -2.386782,1.129695 -3.363281,2.017578 -0.968672,0.872016 -1.750699,1.930654 -2.302734,3.111328 -1.307347,2.886657 -1.080903,6.236996 0.605469,8.919922 0.960425,1.483376 2.29186,2.689801 3.861328,3.501953 1.592384,0.83824 3.366487,1.275032 5.166015,1.269532 1.356994,0.0049 2.702957,-0.245271 3.96875,-0.734375 0.17784,-0.05994 0.457051,-0.171611 0.837891,-0.337891 v 0.535156 l 5.666016,0.05469 0.01758,-9.3125 c 0.01024,-1.344961 -0.275123,-2.674881 -0.837891,-3.896485 -0.559039,-1.181608 -1.34967,-2.240133 -2.324219,-3.111328 -0.974695,-0.893981 -2.116097,-1.586007 -3.359375,-2.037109 -1.269829,-0.472444 -2.61388,-0.713577 -3.96875,-0.712891 z m 0.0098,5.166016 c 0.809699,0 1.618291,0.202727 2.349609,0.607422 0.722159,0.401408 1.331445,0.979171 1.769532,1.679687 0.436889,0.689479 0.665356,1.488462 0.660156,2.304688 0.0079,1.24369 -0.511118,2.432999 -1.429688,3.271484 -1.867697,1.809426 -4.835427,1.809426 -6.703125,0 -0.918077,-0.838673 -1.436434,-2.028036 -1.427734,-3.271484 -0.0052,-0.81622 0.223302,-1.615194 0.660156,-2.304688 0.438115,-0.700503 1.047377,-1.278262 1.769531,-1.679687 0.731319,-0.404695 1.541864,-0.607422 2.351563,-0.607422 z"
         sodipodi:nodetypes="ccccccccccccscccccccccccccccccccccccccccccccccccccccccccccccccccccccccsccccccccccscccccccccccccccsccccccccsc"
         style="display:inline;fill:#2b2e31;fill-opacity:1"
         inkscape:label="stack" />
      <path
         id="path1-5-1-2"
         style="display:none;fill:#f89e1c;fill-opacity:1"
         inkscape:label="r-tail"
         d="m 137.54991,21.460381 c -1.3164,1.36758 -1.9746,3.35297 -1.9746,5.95596 v 4.12695 c -0.1222,1.53632 -2.0465,2.26099 -3.8359,2.67774 -1.7614,0.41684 -4.1121,0.85754 -6.3438,1.07226 -2.1096,0.20604 -4.2056,0.53406 -6.2773,0.98243 -2.5947,0.62939 -5.4837,2.07445 -5.0331,5.18359 0.4134,2.85425 3.6443,4.52173 6.1991,5.10156 3.8437,0.87238 7.6605,0.43403 11.4687,-0.27734 3.5167,-0.65692 6.8274,-2.01483 10.28518,-2.88477 1.3946,-0.39165 2.8631,-0.4419 4.2812,-0.14648 1.5856,0.37622 2.8702,1.07752 3.9434,2.22265 -0.6081,-2.05794 -2.2884,-3.62155 -4.3848,-4.08007 -2.582,-0.5932 -5.3483,0.37988 -7.83198,1.00781 -3.3622,0.91407 -6.7829,1.5973 -10.2383,2.04492 -2.9709,0.33105 -6.7817,0.72278 -9.2578,-1.33203 -1.0419,-0.75162 -1.3138,-2.18691 -0.6191,-3.26758 0.7815,-0.992 2.6813,-1.18341 3.8203,-1.32617 1.9462,-0.19586 3.9015,-0.28713 5.8574,-0.27344 h 7.9668 5.71678 v 0 -6.70508 0 -4.12695 c -1e-4,-2.81165 1.4564,-3.03906 2.5039,-3.03906 0.2652,0.003 0.7097,0.0577 1.1621,0.33986 v -5.39648 c -0.3848,-0.0599 -0.7729,-0.0964 -1.1621,-0.10938 -1.0924,0 -4.26248,0.1883 -6.24618,2.24912 z"
         sodipodi:nodetypes="ssccccssscccccccccccccccsccccss" />
      <path
         id="path1-5-1-2-9-5"
         style="display:inline;fill:#f89e1c;fill-opacity:1"
         inkscape:label="tail overlap"
         d="m 141.2921,31.543291 h -5.7168 c -0.1222,1.53632 -2.0465,2.26099 -3.8359,2.67774 -1.7614,0.41684 -4.1121,0.85754 -6.3438,1.07226 -2.1096,0.20604 -4.2056,0.53406 -6.2773,0.98243 -2.5947,0.62939 -5.4838,2.07445 -5.0332,5.18359 0.4134,2.85425 3.6444,4.52173 6.1992,5.10156 3.8437,0.87238 7.6606,0.43403 11.4688,-0.27734 6.34444,-1.185143 10.31226,-3.917476 14.5664,-3.03125 1.5856,0.37622 2.8701,1.07753 3.9433,2.22266 -0.6081,-2.05794 -2.2883,-3.62156 -4.3847,-4.08008 -4.01049,-0.921387 -7.34089,1.662806 -18.0704,3.05273 -2.9709,0.33105 -6.7817,0.72278 -9.2578,-1.33203 -1.0419,-0.75162 -1.3138,-2.18691 -0.6191,-3.26758 0.7815,-0.992 2.6813,-1.18341 3.8203,-1.32617 1.9462,-0.19586 3.9015,-0.28713 5.8574,-0.27344 h 7.9668 5.7168 z"
         sodipodi:nodetypes="ccccccssccccccccccc" />
      <path
         id="path1-6-9-9"
         style="display:inline;fill:#2b2e31;fill-opacity:1"
         d="m 126.96499,27.809263 -6.07813,1.466797 6.72164,8.972311 h 7.1309 z"
         inkscape:label="k overlap"
         sodipodi:nodetypes="ccccc" />
    </g>
    <g
       id="g47"
       transform="matrix(0.26458332,0,0,0.26458332,-181.41882,-131.08908)"
       style="display:inline"
       inkscape:label="Icon">
      <path
         id="path1-2-9"
         style="display:inline;fill:#f89e1c;fill-opacity:1"
         d="m 697.9302,500.10487 c -0.28123,9.9e-4 -0.56059,0.11001 -0.77539,0.32422 l -4.44141,4.43945 c -0.21466,0.21594 -0.32226,0.49859 -0.32226,0.78125 0,0.28265 0.1076,0.5653 0.32226,0.78125 l 3.92578,3.92383 c 1.23617,1.50531 0.90764,3.90908 -0.19922,5.66797 -0.51619,0.82025 -0.79006,1.15283 -1.49023,1.80469 l -4.43945,4.43945 c -0.82093,0.82558 -1.23047,1.90449 -1.23047,2.98438 0,1.07988 0.40953,2.16074 1.23047,2.98632 l 4.43945,4.43946 c 0.82498,0.81927 1.90221,1.22948 2.98047,1.23047 1.07826,-9.9e-4 2.15548,-0.4112 2.98047,-1.23047 0,0 3.65748,-4.04603 4.00781,-4.38867 0.35035,-0.34266 0.88991,-0.70011 1.58594,-0.81055 -0.18145,-0.0247 -0.67795,-0.16796 -1.03125,-0.15235 -0.3533,0.0156 -0.69198,-0.007 -1.32618,0.37696 -0.63419,0.38379 -4.21679,3.99412 -4.21679,3.99414 -0.55386,0.55029 -1.27598,0.82713 -2,0.82812 -0.72402,-9.9e-4 -1.44614,-0.27783 -2,-0.82812 l -4.43945,-4.43946 c -0.55104,-0.55439 -0.82568,-1.27908 -0.82618,-2.0039 v -0.002 c 5e-4,-0.72482 0.27514,-1.44952 0.82618,-2.00391 l 4.43945,-4.43945 c 0.55386,-0.55028 1.27598,-0.82519 2,-0.82618 0.72402,9.9e-4 1.44615,0.2759 2,0.82618 l 4.43945,4.43945 c 0.24793,0.24794 0.69408,0.29202 0.98438,0.002 0.2903,-0.29031 0.24426,-0.73448 -0.004,-0.98242 l -4.43945,-4.43945 c -0.70016,-0.65186 -0.97406,-0.98444 -1.49024,-1.80469 -1.10686,-1.7589 -1.43538,-4.16268 -0.19922,-5.66797 l 3.92578,-3.92383 c 0.21465,-0.21594 0.32227,-0.49858 0.32227,-0.78125 0,-0.28264 -0.10762,-0.56531 -0.32227,-0.78125 l -4.4414,-4.43945 c -0.21479,-0.21423 -0.49415,-0.32322 -0.77539,-0.32422 z"
         inkscape:label="A" />
      <path
         id="path1-2-9-5"
         style="display:inline;fill:#2b2e31;fill-opacity:1"
         d="m 723.07669,505.65635 c -9.9e-4,-0.28123 -0.11001,-0.56059 -0.32422,-0.77539 l -4.43945,-4.44141 c -0.21594,-0.21466 -0.49859,-0.32226 -0.78125,-0.32226 -0.28265,0 -0.5653,0.1076 -0.78125,0.32226 l -3.92383,3.92578 c -1.50531,1.23617 -3.90908,0.90764 -5.66797,-0.19922 -0.82024,-0.51619 -1.15283,-0.79006 -1.80469,-1.49023 l -4.43945,-4.43945 c -0.82557,-0.82093 -1.90449,-1.23047 -2.98438,-1.23047 -1.07988,0 -2.16072,0.40953 -2.98631,1.23047 l -4.43945,4.43945 c -0.81929,0.82498 -1.2295,1.9022 -1.23048,2.98046 9.9e-4,1.07826 0.4112,2.15549 1.23048,2.98047 0,0 4.04602,3.65748 4.38866,4.00781 0.34266,0.35035 0.7001,0.88991 0.81055,1.58594 0.0247,-0.18145 0.16796,-0.67795 0.15234,-1.03125 -0.0156,-0.3533 0.007,-0.69197 -0.37694,-1.32618 -0.3838,-0.63419 -3.99414,-4.21679 -3.99415,-4.21679 -0.55029,-0.55385 -0.82713,-1.27598 -0.82812,-2 9.9e-4,-0.72401 0.27783,-1.44614 0.82812,-2 l 4.43946,-4.43944 c 0.55439,-0.55104 1.27908,-0.82569 2.0039,-0.82618 h 0.002 c 0.72482,4.9e-4 1.44952,0.27513 2.00391,0.82618 l 4.43945,4.43944 c 0.55028,0.55386 0.82519,1.27599 0.82618,2 -9.9e-4,0.72402 -0.27589,1.44615 -0.82618,2 l -4.43945,4.43945 c -0.24794,0.24793 -0.29202,0.69408 -0.002,0.98438 0.29031,0.2903 0.73448,0.24427 0.98242,-0.004 l 4.43946,-4.43945 c 0.65185,-0.70016 0.98443,-0.97406 1.80468,-1.49024 1.7589,-1.10685 4.16268,-1.43538 5.66797,-0.19921 l 3.92383,3.92578 c 0.21594,0.21465 0.49859,0.32227 0.78125,0.32227 0.28264,0 0.56532,-0.10762 0.78125,-0.32227 l 4.43945,-4.4414 c 0.21423,-0.21479 0.32322,-0.49415 0.32422,-0.77539 z"
         inkscape:label="B" />
      <path
         id="path1-2-9-04"
         style="display:inline;fill:#f89e1c;fill-opacity:1"
         d="m 717.53177,530.80478 c 0.28123,-9.9e-4 0.56059,-0.11001 0.77539,-0.32422 l 4.44141,-4.43945 c 0.21466,-0.21594 0.32226,-0.49859 0.32226,-0.78125 0,-0.28265 -0.1076,-0.5653 -0.32226,-0.78125 l -3.92578,-3.92383 c -1.23617,-1.50531 -0.90764,-3.90908 0.19922,-5.66796 0.51619,-0.82025 0.79006,-1.15283 1.49023,-1.8047 l 4.43944,-4.43945 c 0.82093,-0.82557 1.23047,-1.90449 1.23047,-2.98437 0,-1.07989 -0.40953,-2.16075 -1.23047,-2.98632 l -4.43944,-4.43947 c -0.82498,-0.81926 -1.90221,-1.22947 -2.98047,-1.23046 -1.07826,9.9e-4 -2.15548,0.4112 -2.98047,1.23046 0,0 -3.65748,4.04603 -4.00781,4.38868 -0.35035,0.34266 -0.88991,0.70011 -1.58594,0.81055 0.18145,0.0247 0.67795,0.16796 1.03125,0.15235 0.3533,-0.0156 0.69198,0.007 1.32618,-0.37697 0.63419,-0.38379 4.21679,-3.99411 4.21679,-3.99414 0.55386,-0.55029 1.27598,-0.82713 2,-0.82812 0.72402,9.9e-4 1.44614,0.27783 2,0.82812 l 4.43945,4.43946 c 0.55103,0.5544 0.82568,1.27909 0.82618,2.00391 v 0.002 c -5e-4,0.72483 -0.27514,1.44952 -0.82618,2.00392 l -4.43945,4.43944 c -0.55386,0.55029 -1.27598,0.82519 -2,0.82618 -0.72402,-9.9e-4 -1.44615,-0.27589 -2,-0.82618 l -4.43945,-4.43944 c -0.24793,-0.24794 -0.69408,-0.29202 -0.98438,-0.002 -0.2903,0.29031 -0.24426,0.73448 0.004,0.98242 l 4.43945,4.43945 c 0.70016,0.65186 0.97406,0.98444 1.49024,1.80469 1.10686,1.7589 1.43538,4.16268 0.19922,5.66797 l -3.92579,3.92383 c -0.21465,0.21594 -0.32227,0.49857 -0.32227,0.78125 0,0.28264 0.10762,0.5653 0.32227,0.78125 l 4.44141,4.43945 c 0.21479,0.21423 0.49415,0.32321 0.77539,0.32421 z"
         inkscape:label="C" />
      <path
         id="path1-2-9-5-6"
         style="display:inline;fill:#2b2e31;fill-opacity:1"
         d="m 692.38528,525.2533 c 9.9e-4,0.28123 0.11001,0.56059 0.32422,0.77539 l 4.43945,4.44141 c 0.21594,0.21466 0.49859,0.32226 0.78125,0.32226 0.28264,0 0.56529,-0.1076 0.78125,-0.32226 l 3.92382,-3.92577 c 1.50531,-1.23618 3.90908,-0.90765 5.66797,0.19921 0.82025,0.5162 1.15283,0.79007 1.80469,1.49023 l 4.43945,4.43945 c 0.82559,0.82093 1.9045,1.23047 2.98439,1.23047 1.07988,0 2.16072,-0.40953 2.98632,-1.23047 l 4.43944,-4.43945 c 0.81929,-0.82498 1.2295,-1.9022 1.23049,-2.98046 -9.9e-4,-1.07826 -0.4112,-2.15549 -1.23048,-2.98046 0,0 -4.04602,-3.65748 -4.38866,-4.00781 -0.34266,-0.35035 -0.70011,-0.88991 -0.81055,-1.58594 -0.0247,0.18145 -0.16796,0.67795 -0.15235,1.03125 0.0156,0.35329 -0.007,0.69196 0.37695,1.32618 0.3838,0.63419 3.99413,4.21678 3.99415,4.21678 0.55029,0.55385 0.82713,1.27598 0.82812,2 -9.9e-4,0.72401 -0.27783,1.44614 -0.82812,2 l -4.43946,4.43944 c -0.55439,0.55104 -1.27908,0.82569 -2.0039,0.82618 h -0.002 c -0.72482,-4.9e-4 -1.44952,-0.27513 -2.00391,-0.82618 l -4.43945,-4.43944 c -0.55028,-0.55386 -0.82519,-1.27599 -0.82618,-2 9.9e-4,-0.72402 0.27589,-1.44615 0.82618,-2 l 4.43945,-4.43944 c 0.24794,-0.24793 0.29202,-0.69408 0.002,-0.98438 -0.2903,-0.2903 -0.73447,-0.24428 -0.98242,0.004 l -4.43946,4.43945 c -0.65185,0.70015 -0.98443,0.97406 -1.80468,1.49023 -1.7589,1.10685 -4.16268,1.43538 -5.66797,0.19921 l -3.92382,-3.92578 c -0.21595,-0.21465 -0.4986,-0.32227 -0.78125,-0.32227 -0.28265,0 -0.56533,0.10762 -0.78125,0.32227 l -4.43945,4.4414 c -0.21424,0.21479 -0.32322,0.49415 -0.32422,0.7754 z"
         inkscape:label="D" />
    </g>
  </g>
</svg>
